<?xml version="1.0" encoding="iso-8859-1"?>
<!-- Generator: Adobe Illustrator 19.0.0, SVG Export Plug-In . SVG Version: 6.00 Build 0)  -->
<svg version="1.1" id="Capa_1" xmlns="http://www.w3.org/2000/svg" xmlns:xlink="http://www.w3.org/1999/xlink" x="0px" y="0px"
	 viewBox="0 0 378.037 378.037" style="enable-background:new 0 0 378.037 378.037;" xml:space="preserve">
<path style="fill:#F8305F;" d="M184.542,233.6c-28.8-16-63.2-52.8-67.2-83.2c-2.4-12,1.6-24,10.4-32c6.4-7.2,16-11.2,24.8-11.2
	c19.2,0,34.4,19.2,35.2,20.8c1.6-2.4,16-20.8,36-20.8c9.6,0,18.4,4,24.8,11.2c8.8,8,12.8,20,10.4,32c-4,30.4-38.4,67.2-67.2,83.2
	l-3.2,1.6L184.542,233.6z"/>
<path style="fill:#FFFFFF;" d="M218.942,311.2c-83.2,16.8-164-36.8-180.8-119.2s36.8-164,119.2-180.8s164,36.8,180.8,119.2
	c2.4,10.4,3.2,20,3.2,30.4c0,46.4-20.8,91.2-57.6,120v88.8L218.942,311.2z M152.542,107.2c-9.6,0-18.4,4-24.8,11.2
	c-8.8,8-12.8,20-10.4,32c4.8,34.4,45.6,72,71.2,85.6c26.4-13.6,66.4-51.2,71.2-85.6c2.4-12-1.6-24-10.4-32
	c-6.4-7.2-16-11.2-24.8-11.2c-11.2,0.8-22.4,6.4-30.4,14.4l-5.6,5.6l-5.6-5.6C174.942,113.6,164.542,108,152.542,107.2z"/>
<g>
	<path style="fill:#28150B;" d="M188.542,0c-88.8,0-160.8,72.8-160.8,161.6s72.8,160.8,161.6,160.8c8.8,0,18.4-0.8,27.2-2.4l62.4,56
		c3.2,3.2,8,2.4,11.2-0.8c1.6-1.6,2.4-3.2,2.4-5.6v-84.8c68-56.8,77.6-158.4,20-227.2C281.342,20.8,236.542,0,188.542,0z
		 M278.942,274.4c-1.6,1.6-3.2,4-3.2,6.4V352l-51.2-46.4c-1.6-1.6-3.2-2.4-5.6-2.4h-1.6c-78.4,16-155.2-34.4-171.2-113.6
		s34.4-155.2,113.6-171.2s155.2,34.4,171.2,113.6c1.6,9.6,3.2,19.2,3.2,29.6C334.142,204.8,313.342,247.2,278.942,274.4z"/>
	<path style="fill:#28150B;" d="M224.542,99.2c-13.6,0.8-26.4,7.2-36,16.8c-9.6-10.4-22.4-16-36-16.8c-11.2,0-22.4,4.8-30.4,13.6
		c-10.4,9.6-15.2,24-12.8,38.4c5.6,37.6,47.2,76.8,76,91.2c2.4,0.8,4.8,0.8,7.2,0c28-14.4,70.4-53.6,76-91.2
		c2.4-14.4-2.4-28.8-12.8-38.4C246.942,104.8,235.742,100,224.542,99.2z M251.742,148.8c-4,27.2-36,61.6-63.2,77.6
		c-28-15.2-60-50.4-63.2-77.6c-1.6-8.8,0.8-18.4,8-24.8c4.8-5.6,12-8.8,20-8.8c16,0,28.8,17.6,28.8,17.6c2.4,4,7.2,4.8,11.2,1.6
		c0.8-0.8,1.6-0.8,1.6-1.6c0,0,12.8-17.6,29.6-17.6c7.2,0,14.4,4,20,8.8C250.942,130.4,254.142,140,251.742,148.8z"/>
</g>
<g>
</g>
<g>
</g>
<g>
</g>
<g>
</g>
<g>
</g>
<g>
</g>
<g>
</g>
<g>
</g>
<g>
</g>
<g>
</g>
<g>
</g>
<g>
</g>
<g>
</g>
<g>
</g>
<g>
</g>
</svg>
